<svg xmlns="http://www.w3.org/2000/svg" xmlns:xlink="http://www.w3.org/1999/xlink" width="116" zoomAndPan="magnify" viewBox="0 0 87 54" height="72" preserveAspectRatio="xMidYMid meet" version="1.0"><defs><g/><clipPath id="66590915d0"><path d="M 0.789062 42.871094 L 5.554688 42.871094 L 5.554688 52.773438 L 0.789062 52.773438 Z M 0.789062 42.871094 " clip-rule="nonzero"/></clipPath><clipPath id="5b2754b9f5"><path d="M 3.171875 42.871094 C 4.488281 42.871094 5.554688 43.9375 5.554688 45.253906 L 5.554688 50.382812 C 5.554688 51.699219 4.488281 52.765625 3.171875 52.765625 C 1.855469 52.765625 0.789062 51.699219 0.789062 50.382812 L 0.789062 45.253906 C 0.789062 43.9375 1.855469 42.871094 3.171875 42.871094 Z M 3.171875 42.871094 " clip-rule="nonzero"/></clipPath><clipPath id="b697e2bee6"><path d="M 8.105469 32.980469 L 12.871094 32.980469 L 12.871094 52.78125 L 8.105469 52.78125 Z M 8.105469 32.980469 " clip-rule="nonzero"/></clipPath><clipPath id="55de2e0337"><path d="M 10.488281 32.980469 C 11.804688 32.980469 12.871094 34.046875 12.871094 35.359375 L 12.871094 50.382812 C 12.871094 51.699219 11.804688 52.765625 10.488281 52.765625 C 9.171875 52.765625 8.105469 51.699219 8.105469 50.382812 L 8.105469 35.359375 C 8.105469 34.046875 9.171875 32.980469 10.488281 32.980469 Z M 10.488281 32.980469 " clip-rule="nonzero"/></clipPath><clipPath id="fba9ec88e0"><path d="M 15.34375 42.871094 L 20.109375 42.871094 L 20.109375 52.773438 L 15.34375 52.773438 Z M 15.34375 42.871094 " clip-rule="nonzero"/></clipPath><clipPath id="6f3c1322a2"><path d="M 17.726562 42.871094 C 19.042969 42.871094 20.109375 43.9375 20.109375 45.253906 L 20.109375 50.382812 C 20.109375 51.699219 19.042969 52.765625 17.726562 52.765625 C 16.410156 52.765625 15.34375 51.699219 15.34375 50.382812 L 15.34375 45.253906 C 15.34375 43.9375 16.410156 42.871094 17.726562 42.871094 Z M 17.726562 42.871094 " clip-rule="nonzero"/></clipPath><clipPath id="60d031b9f4"><path d="M 22.582031 13.015625 L 27.347656 13.015625 L 27.347656 52.765625 L 22.582031 52.765625 Z M 22.582031 13.015625 " clip-rule="nonzero"/></clipPath><clipPath id="b38675beb5"><path d="M 24.964844 13.015625 C 26.28125 13.015625 27.347656 14.082031 27.347656 15.398438 L 27.347656 50.382812 C 27.347656 51.699219 26.28125 52.765625 24.964844 52.765625 C 23.648438 52.765625 22.582031 51.699219 22.582031 50.382812 L 22.582031 15.398438 C 22.582031 14.082031 23.648438 13.015625 24.964844 13.015625 Z M 24.964844 13.015625 " clip-rule="nonzero"/></clipPath><clipPath id="54016a39e4"><path d="M 29.820312 32.980469 L 34.582031 32.980469 L 34.582031 52.78125 L 29.820312 52.78125 Z M 29.820312 32.980469 " clip-rule="nonzero"/></clipPath><clipPath id="3908137060"><path d="M 32.203125 32.980469 C 33.515625 32.980469 34.582031 34.046875 34.582031 35.359375 L 34.582031 50.382812 C 34.582031 51.699219 33.515625 52.765625 32.203125 52.765625 C 30.886719 52.765625 29.820312 51.699219 29.820312 50.382812 L 29.820312 35.359375 C 29.820312 34.046875 30.886719 32.980469 32.203125 32.980469 Z M 32.203125 32.980469 " clip-rule="nonzero"/></clipPath><clipPath id="59b831f329"><path d="M 37.058594 42.871094 L 41.820312 42.871094 L 41.820312 52.773438 L 37.058594 52.773438 Z M 37.058594 42.871094 " clip-rule="nonzero"/></clipPath><clipPath id="9454d2ffba"><path d="M 39.4375 42.871094 C 40.753906 42.871094 41.820312 43.9375 41.820312 45.253906 L 41.820312 50.382812 C 41.820312 51.699219 40.753906 52.765625 39.4375 52.765625 C 38.125 52.765625 37.058594 51.699219 37.058594 50.382812 L 37.058594 45.253906 C 37.058594 43.9375 38.125 42.871094 39.4375 42.871094 Z M 39.4375 42.871094 " clip-rule="nonzero"/></clipPath><clipPath id="e335ca222c"><path d="M 44.292969 42.871094 L 49.058594 42.871094 L 49.058594 52.773438 L 44.292969 52.773438 Z M 44.292969 42.871094 " clip-rule="nonzero"/></clipPath><clipPath id="4f6dff60a0"><path d="M 46.675781 42.871094 C 47.992188 42.871094 49.058594 43.9375 49.058594 45.253906 L 49.058594 50.382812 C 49.058594 51.699219 47.992188 52.765625 46.675781 52.765625 C 45.359375 52.765625 44.292969 51.699219 44.292969 50.382812 L 44.292969 45.253906 C 44.292969 43.9375 45.359375 42.871094 46.675781 42.871094 Z M 46.675781 42.871094 " clip-rule="nonzero"/></clipPath><clipPath id="7cbd27a122"><path d="M 21.714844 9.808594 L 28.132812 9.808594 L 28.132812 16.226562 L 21.714844 16.226562 Z M 21.714844 9.808594 " clip-rule="nonzero"/></clipPath><clipPath id="328fb6b244"><path d="M 24.925781 9.808594 C 23.152344 9.808594 21.714844 11.246094 21.714844 13.015625 C 21.714844 14.789062 23.152344 16.226562 24.925781 16.226562 C 26.695312 16.226562 28.132812 14.789062 28.132812 13.015625 C 28.132812 11.246094 26.695312 9.808594 24.925781 9.808594 Z M 24.925781 9.808594 " clip-rule="nonzero"/></clipPath><clipPath id="4d4ff92e57"><path d="M 11.890625 10.636719 L 24.917969 10.636719 L 24.917969 15.402344 L 11.890625 15.402344 Z M 11.890625 10.636719 " clip-rule="nonzero"/></clipPath><clipPath id="0f395c15a7"><path d="M 24.917969 13.019531 C 24.917969 14.335938 23.851562 15.402344 22.535156 15.402344 L 14.273438 15.402344 C 12.957031 15.402344 11.890625 14.335938 11.890625 13.019531 C 11.890625 11.703125 12.957031 10.636719 14.273438 10.636719 L 22.535156 10.636719 C 23.851562 10.636719 24.917969 11.703125 24.917969 13.019531 Z M 24.917969 13.019531 " clip-rule="nonzero"/></clipPath><clipPath id="726f79b772"><path d="M 24.957031 10.636719 L 37.984375 10.636719 L 37.984375 15.402344 L 24.957031 15.402344 Z M 24.957031 10.636719 " clip-rule="nonzero"/></clipPath><clipPath id="d83c729800"><path d="M 37.984375 13.019531 C 37.984375 14.335938 36.917969 15.402344 35.601562 15.402344 L 27.339844 15.402344 C 26.023438 15.402344 24.957031 14.335938 24.957031 13.019531 C 24.957031 11.703125 26.023438 10.636719 27.339844 10.636719 L 35.601562 10.636719 C 36.917969 10.636719 37.984375 11.703125 37.984375 13.019531 Z M 37.984375 13.019531 " clip-rule="nonzero"/></clipPath><clipPath id="0afbbb6e70"><path d="M 22.542969 0 L 27.308594 0 L 27.308594 13.027344 L 22.542969 13.027344 Z M 22.542969 0 " clip-rule="nonzero"/></clipPath><clipPath id="23ff757287"><path d="M 24.925781 0 C 26.242188 0 27.308594 1.066406 27.308594 2.382812 L 27.308594 10.632812 C 27.308594 11.949219 26.242188 13.015625 24.925781 13.015625 C 23.609375 13.015625 22.542969 11.949219 22.542969 10.632812 L 22.542969 2.382812 C 22.542969 1.066406 23.609375 0 24.925781 0 Z M 24.925781 0 " clip-rule="nonzero"/></clipPath><clipPath id="477efdb90a"><path d="M 14 14 L 24 14 L 24 24 L 14 24 Z M 14 14 " clip-rule="nonzero"/></clipPath><clipPath id="c880cbc60f"><path d="M 21.554688 13.019531 L 24.921875 16.386719 L 16.882812 24.429688 L 13.515625 21.058594 Z M 21.554688 13.019531 " clip-rule="nonzero"/></clipPath><clipPath id="bd552159b9"><path d="M 23.238281 14.703125 C 24.167969 15.632812 24.167969 17.140625 23.238281 18.074219 L 18.578125 22.734375 C 17.648438 23.664062 16.140625 23.664062 15.210938 22.734375 C 14.28125 21.800781 14.28125 20.292969 15.210938 19.363281 L 19.871094 14.703125 C 20.800781 13.773438 22.308594 13.773438 23.238281 14.703125 Z M 23.238281 14.703125 " clip-rule="nonzero"/></clipPath><clipPath id="0813266712"><path d="M 25 14 L 36 14 L 36 24 L 25 24 Z M 25 14 " clip-rule="nonzero"/></clipPath><clipPath id="6d8fa37d83"><path d="M 36.351562 21.046875 L 32.984375 24.414062 L 24.945312 16.375 L 28.3125 13.007812 Z M 36.351562 21.046875 " clip-rule="nonzero"/></clipPath><clipPath id="b327dd57d2"><path d="M 34.667969 22.730469 C 33.738281 23.660156 32.230469 23.660156 31.300781 22.730469 L 26.640625 18.070312 C 25.710938 17.140625 25.710938 15.632812 26.640625 14.703125 C 27.570312 13.773438 29.078125 13.773438 30.007812 14.703125 L 34.667969 19.363281 C 35.597656 20.292969 35.597656 21.800781 34.667969 22.730469 Z M 34.667969 22.730469 " clip-rule="nonzero"/></clipPath><clipPath id="ede6e4b28f"><path d="M 14 2 L 24 2 L 24 13 L 14 13 Z M 14 2 " clip-rule="nonzero"/></clipPath><clipPath id="59944d6d2f"><path d="M 24.917969 9.652344 L 21.546875 13.019531 L 13.46875 4.941406 L 16.835938 1.570312 Z M 24.917969 9.652344 " clip-rule="nonzero"/></clipPath><clipPath id="6e03832f36"><path d="M 23.230469 11.335938 C 22.300781 12.265625 20.792969 12.265625 19.863281 11.335938 L 15.164062 6.636719 C 14.234375 5.707031 14.234375 4.199219 15.164062 3.265625 C 16.09375 2.335938 17.601562 2.335938 18.535156 3.265625 L 23.230469 7.964844 C 24.164062 8.898438 24.164062 10.40625 23.230469 11.335938 Z M 23.230469 11.335938 " clip-rule="nonzero"/></clipPath><clipPath id="b53100ec27"><path d="M 25 2 L 36 2 L 36 13 L 25 13 Z M 25 2 " clip-rule="nonzero"/></clipPath><clipPath id="bbea4f97e2"><path d="M 32.992188 1.582031 L 36.359375 4.953125 L 28.28125 13.03125 L 24.910156 9.664062 Z M 32.992188 1.582031 " clip-rule="nonzero"/></clipPath><clipPath id="4d9063f16a"><path d="M 34.675781 3.269531 C 35.605469 4.199219 35.605469 5.707031 34.675781 6.636719 L 29.976562 11.335938 C 29.046875 12.265625 27.539062 12.265625 26.609375 11.335938 C 25.675781 10.40625 25.675781 8.898438 26.609375 7.964844 L 31.304688 3.269531 C 32.238281 2.335938 33.746094 2.335938 34.675781 3.269531 Z M 34.675781 3.269531 " clip-rule="nonzero"/></clipPath><clipPath id="88a820dc9c"><path d="M 21.722656 9.773438 L 28.207031 9.773438 L 28.207031 16.257812 L 21.722656 16.257812 Z M 21.722656 9.773438 " clip-rule="nonzero"/></clipPath><clipPath id="e4add66fe1"><path d="M 24.964844 9.773438 C 23.171875 9.773438 21.722656 11.226562 21.722656 13.015625 C 21.722656 14.808594 23.171875 16.257812 24.964844 16.257812 C 26.753906 16.257812 28.207031 14.808594 28.207031 13.015625 C 28.207031 11.226562 26.753906 9.773438 24.964844 9.773438 Z M 24.964844 9.773438 " clip-rule="nonzero"/></clipPath></defs><g clip-path="url(#66590915d0)"><g clip-path="url(#5b2754b9f5)"><path fill="#d9c11e" d="M 0.789062 42.871094 L 5.554688 42.871094 L 5.554688 52.773438 L 0.789062 52.773438 Z M 0.789062 42.871094 " fill-opacity="1" fill-rule="nonzero"/></g></g><g clip-path="url(#b697e2bee6)"><g clip-path="url(#55de2e0337)"><path fill="#d9c11e" d="M 8.105469 32.980469 L 12.871094 32.980469 L 12.871094 52.761719 L 8.105469 52.761719 Z M 8.105469 32.980469 " fill-opacity="1" fill-rule="nonzero"/></g></g><g clip-path="url(#fba9ec88e0)"><g clip-path="url(#6f3c1322a2)"><path fill="#d9c11e" d="M 15.34375 42.871094 L 20.109375 42.871094 L 20.109375 52.773438 L 15.34375 52.773438 Z M 15.34375 42.871094 " fill-opacity="1" fill-rule="nonzero"/></g></g><g clip-path="url(#60d031b9f4)"><g clip-path="url(#b38675beb5)"><path fill="#d9c11e" d="M 22.582031 13.015625 L 27.347656 13.015625 L 27.347656 52.765625 L 22.582031 52.765625 Z M 22.582031 13.015625 " fill-opacity="1" fill-rule="nonzero"/></g></g><g clip-path="url(#54016a39e4)"><g clip-path="url(#3908137060)"><path fill="#d9c11e" d="M 29.820312 32.980469 L 34.582031 32.980469 L 34.582031 52.761719 L 29.820312 52.761719 Z M 29.820312 32.980469 " fill-opacity="1" fill-rule="nonzero"/></g></g><g clip-path="url(#59b831f329)"><g clip-path="url(#9454d2ffba)"><path fill="#d9c11e" d="M 37.058594 42.871094 L 41.820312 42.871094 L 41.820312 52.773438 L 37.058594 52.773438 Z M 37.058594 42.871094 " fill-opacity="1" fill-rule="nonzero"/></g></g><g clip-path="url(#e335ca222c)"><g clip-path="url(#4f6dff60a0)"><path fill="#d9c11e" d="M 44.292969 42.871094 L 49.058594 42.871094 L 49.058594 52.773438 L 44.292969 52.773438 Z M 44.292969 42.871094 " fill-opacity="1" fill-rule="nonzero"/></g></g><g clip-path="url(#7cbd27a122)"><g clip-path="url(#328fb6b244)"><path fill="#d9c11e" d="M 21.714844 9.808594 L 28.132812 9.808594 L 28.132812 16.226562 L 21.714844 16.226562 Z M 21.714844 9.808594 " fill-opacity="1" fill-rule="nonzero"/></g></g><g clip-path="url(#4d4ff92e57)"><g clip-path="url(#0f395c15a7)"><path fill="#d9c11e" d="M 24.917969 10.636719 L 24.917969 15.402344 L 11.890625 15.402344 L 11.890625 10.636719 Z M 24.917969 10.636719 " fill-opacity="1" fill-rule="nonzero"/></g></g><g clip-path="url(#726f79b772)"><g clip-path="url(#d83c729800)"><path fill="#d9c11e" d="M 37.984375 10.636719 L 37.984375 15.402344 L 24.957031 15.402344 L 24.957031 10.636719 Z M 37.984375 10.636719 " fill-opacity="1" fill-rule="nonzero"/></g></g><g clip-path="url(#0afbbb6e70)"><g clip-path="url(#23ff757287)"><path fill="#d9c11e" d="M 22.542969 0 L 27.308594 0 L 27.308594 13.007812 L 22.542969 13.007812 Z M 22.542969 0 " fill-opacity="1" fill-rule="nonzero"/></g></g><g clip-path="url(#477efdb90a)"><g clip-path="url(#c880cbc60f)"><g clip-path="url(#bd552159b9)"><path fill="#d9c11e" d="M 21.554688 13.019531 L 24.921875 16.386719 L 16.894531 24.414062 L 13.527344 21.046875 Z M 21.554688 13.019531 " fill-opacity="1" fill-rule="nonzero"/></g></g></g><g clip-path="url(#0813266712)"><g clip-path="url(#6d8fa37d83)"><g clip-path="url(#b327dd57d2)"><path fill="#d9c11e" d="M 36.351562 21.046875 L 32.984375 24.414062 L 24.957031 16.386719 L 28.324219 13.019531 Z M 36.351562 21.046875 " fill-opacity="1" fill-rule="nonzero"/></g></g></g><g clip-path="url(#ede6e4b28f)"><g clip-path="url(#59944d6d2f)"><g clip-path="url(#6e03832f36)"><path fill="#d9c11e" d="M 24.917969 9.652344 L 21.546875 13.019531 L 13.480469 4.953125 L 16.851562 1.585938 Z M 24.917969 9.652344 " fill-opacity="1" fill-rule="nonzero"/></g></g></g><g clip-path="url(#b53100ec27)"><g clip-path="url(#bbea4f97e2)"><g clip-path="url(#4d9063f16a)"><path fill="#d9c11e" d="M 32.992188 1.582031 L 36.359375 4.953125 L 28.292969 13.019531 L 24.925781 9.648438 Z M 32.992188 1.582031 " fill-opacity="1" fill-rule="nonzero"/></g></g></g><g clip-path="url(#88a820dc9c)"><g clip-path="url(#e4add66fe1)"><path fill="#d9c11e" d="M 21.722656 9.773438 L 28.207031 9.773438 L 28.207031 16.257812 L 21.722656 16.257812 Z M 21.722656 9.773438 " fill-opacity="1" fill-rule="nonzero"/></g></g><g fill="#ffffff" fill-opacity="1"><g transform="translate(44.559481, 23.373976)"><g><path d="M 7.472656 0 C 7.632812 0 7.675781 -0.0390625 7.703125 -0.203125 C 7.785156 -0.597656 7.917969 -2.511719 7.917969 -3.21875 C 7.917969 -4.265625 7.742188 -4.644531 6.847656 -4.644531 L 6.097656 -4.644531 C 5.757812 -4.644531 5.71875 -4.277344 5.664062 -3.75 L 5.582031 -2.988281 C 5.5 -2.226562 4.984375 -1.984375 4.292969 -1.984375 C 3.546875 -1.984375 3.097656 -2.566406 3.097656 -4.304688 C 3.097656 -5.351562 3.289062 -7.703125 5.066406 -7.703125 C 5.921875 -7.703125 5.785156 -6.96875 5.855469 -6.316406 C 5.867188 -6.125 5.894531 -6.070312 6.289062 -6.070312 C 7.527344 -6.070312 8.257812 -6.617188 8.257812 -7.660156 C 8.257812 -8.964844 7.105469 -9.78125 5.269531 -9.78125 C 1.046875 -9.78125 0.558594 -5.964844 0.558594 -4.101562 C 0.558594 -0.871094 1.957031 0.136719 3.355469 0.136719 C 4.5625 0.136719 5.1875 -0.40625 5.378906 -1.019531 C 5.40625 -0.449219 5.785156 0 6.722656 0 Z M 7.472656 0 "/></g></g></g><g fill="#ffffff" fill-opacity="1"><g transform="translate(53.251574, 23.373976)"><g><path d="M 4.945312 -4.226562 C 5.894531 -4.226562 6.507812 -5.054688 6.507812 -6.03125 C 6.507812 -7.117188 5.734375 -7.605469 5.027344 -7.605469 C 4.441406 -7.605469 3.613281 -7.28125 3.191406 -6.4375 C 3.125 -6.996094 2.824219 -7.472656 1.792969 -7.472656 L 1.261719 -7.472656 C 1.113281 -7.472656 0.992188 -7.335938 0.976562 -7.078125 C 0.691406 -3.082031 0.570312 -1.847656 0.570312 -1.289062 C 0.570312 -0.460938 0.84375 0 1.957031 0 L 2.445312 0 C 2.59375 0 2.742188 -0.09375 2.742188 -0.273438 C 2.742188 -0.585938 2.921875 -2.582031 3.003906 -3.734375 C 3.097656 -5.054688 3.449219 -5.71875 3.953125 -5.71875 C 4.277344 -5.71875 4.359375 -5.433594 4.359375 -5.039062 C 4.359375 -4.824219 4.332031 -4.632812 4.332031 -4.402344 C 4.332031 -4.265625 4.742188 -4.226562 4.945312 -4.226562 Z M 4.945312 -4.226562 "/></g></g></g><g fill="#ffffff" fill-opacity="1"><g transform="translate(59.757059, 23.373976)"><g><path d="M 3.695312 0.136719 C 4.902344 0.136719 6.355469 -0.285156 6.355469 -1.34375 C 6.355469 -2.160156 5.5 -2.308594 5.324219 -2.308594 C 4.945312 -2.308594 4.957031 -1.5625 4.007812 -1.5625 C 3.082031 -1.5625 2.71875 -2.253906 2.71875 -2.949219 C 3.601562 -2.949219 6.96875 -3.082031 6.96875 -5.570312 C 6.96875 -6.683594 6.304688 -7.605469 4.414062 -7.605469 C 0.910156 -7.605469 0.378906 -4.414062 0.378906 -3.042969 C 0.378906 -0.570312 2.117188 0.136719 3.695312 0.136719 Z M 3.953125 -5.800781 C 4.414062 -5.800781 4.644531 -5.460938 4.644531 -5.09375 C 4.644531 -4.429688 3.871094 -4.046875 2.757812 -4.035156 C 2.851562 -4.808594 3.152344 -5.800781 3.953125 -5.800781 Z M 3.953125 -5.800781 "/></g></g></g><g fill="#ffffff" fill-opacity="1"><g transform="translate(66.98236, 23.373976)"><g><path d="M 3.695312 0.136719 C 4.902344 0.136719 6.355469 -0.285156 6.355469 -1.34375 C 6.355469 -2.160156 5.5 -2.308594 5.324219 -2.308594 C 4.945312 -2.308594 4.957031 -1.5625 4.007812 -1.5625 C 3.082031 -1.5625 2.71875 -2.253906 2.71875 -2.949219 C 3.601562 -2.949219 6.96875 -3.082031 6.96875 -5.570312 C 6.96875 -6.683594 6.304688 -7.605469 4.414062 -7.605469 C 0.910156 -7.605469 0.378906 -4.414062 0.378906 -3.042969 C 0.378906 -0.570312 2.117188 0.136719 3.695312 0.136719 Z M 3.953125 -5.800781 C 4.414062 -5.800781 4.644531 -5.460938 4.644531 -5.09375 C 4.644531 -4.429688 3.871094 -4.046875 2.757812 -4.035156 C 2.851562 -4.808594 3.152344 -5.800781 3.953125 -5.800781 Z M 3.953125 -5.800781 "/></g></g></g><g fill="#ffffff" fill-opacity="1"><g transform="translate(74.207661, 23.373976)"><g><path d="M 5.1875 -1.195312 C 5.1875 -0.433594 5.445312 0 6.589844 0 L 7.023438 0 C 7.335938 0 7.390625 -0.0273438 7.390625 -0.421875 C 7.390625 -0.882812 7.757812 -4.265625 7.757812 -5.148438 C 7.757812 -6.996094 7.035156 -7.605469 5.515625 -7.605469 C 4.429688 -7.605469 3.761719 -7.292969 3.191406 -6.332031 C 3.152344 -6.929688 2.867188 -7.472656 1.78125 -7.472656 L 1.25 -7.472656 C 1.128906 -7.472656 1.074219 -7.472656 1.03125 -7.429688 C 0.992188 -7.390625 0.976562 -7.292969 0.964844 -7.078125 C 0.679688 -3.082031 0.558594 -1.847656 0.558594 -1.289062 C 0.558594 -0.460938 0.828125 0 1.941406 0 L 2.429688 0 C 2.664062 0 2.71875 -0.0546875 2.730469 -0.273438 C 3.042969 -4.769531 3.394531 -5.785156 4.644531 -5.785156 C 5.296875 -5.785156 5.472656 -5.351562 5.472656 -4.875 C 5.472656 -3.980469 5.1875 -1.984375 5.1875 -1.195312 Z M 5.1875 -1.195312 "/></g></g></g><g fill="#ffffff" fill-opacity="1"><g transform="translate(41.044696, 39.583678)"><g><path d="M 4.6875 0 C 5.5 0 5.679688 -0.367188 5.71875 -0.910156 L 5.773438 -1.710938 C 5.773438 -1.832031 5.664062 -1.902344 5.554688 -1.902344 L 3.109375 -1.902344 L 3.558594 -8.246094 C 3.558594 -8.328125 3.574219 -8.410156 3.574219 -8.488281 C 3.574219 -9.25 3.234375 -9.644531 2.226562 -9.644531 L 1.480469 -9.644531 C 1.332031 -9.644531 1.261719 -9.589844 1.261719 -9.441406 C 1.261719 -8.515625 0.691406 -2.253906 0.691406 -1.15625 C 0.691406 -0.421875 1.101562 0 2.105469 0 Z M 4.6875 0 "/></g></g></g><g fill="#ffffff" fill-opacity="1"><g transform="translate(47.129161, 39.583678)"><g><path d="M 3.695312 0.136719 C 4.902344 0.136719 6.355469 -0.285156 6.355469 -1.34375 C 6.355469 -2.160156 5.5 -2.308594 5.324219 -2.308594 C 4.945312 -2.308594 4.957031 -1.5625 4.007812 -1.5625 C 3.082031 -1.5625 2.71875 -2.253906 2.71875 -2.949219 C 3.601562 -2.949219 6.96875 -3.082031 6.96875 -5.570312 C 6.96875 -6.683594 6.304688 -7.605469 4.414062 -7.605469 C 0.910156 -7.605469 0.378906 -4.414062 0.378906 -3.042969 C 0.378906 -0.570312 2.117188 0.136719 3.695312 0.136719 Z M 3.953125 -5.800781 C 4.414062 -5.800781 4.644531 -5.460938 4.644531 -5.09375 C 4.644531 -4.429688 3.871094 -4.046875 2.757812 -4.035156 C 2.851562 -4.808594 3.152344 -5.800781 3.953125 -5.800781 Z M 3.953125 -5.800781 "/></g></g></g><g fill="#ffffff" fill-opacity="1"><g transform="translate(54.354462, 39.583678)"><g><path d="M 0.148438 -1.671875 C 0.148438 -0.351562 1.03125 0.136719 2.117188 0.136719 C 3.246094 0.136719 3.898438 -0.421875 4.332031 -1.046875 C 4.46875 -0.3125 4.875 0.136719 5.746094 0.136719 C 6.996094 0.136719 7.375 -0.828125 7.375 -1.628906 C 7.375 -1.914062 6.574219 -1.617188 6.574219 -2.527344 C 6.574219 -2.933594 6.804688 -4.808594 6.804688 -5.214844 C 6.804688 -6.738281 5.949219 -7.605469 3.9375 -7.605469 C 1.859375 -7.605469 0.828125 -6.683594 0.828125 -5.542969 C 0.828125 -4.824219 1.289062 -4.496094 2.214844 -4.496094 C 2.484375 -4.496094 2.59375 -4.523438 2.636719 -4.6875 C 2.796875 -5.339844 2.921875 -5.785156 3.679688 -5.785156 C 4.359375 -5.785156 4.523438 -5.421875 4.523438 -4.835938 C 4.523438 -4.644531 4.511719 -4.523438 4.496094 -4.332031 C 1.65625 -4.265625 0.148438 -3.289062 0.148438 -1.671875 Z M 4.375 -3.21875 C 4.292969 -2.1875 3.695312 -1.671875 3.109375 -1.671875 C 2.8125 -1.671875 2.484375 -1.808594 2.484375 -2.226562 C 2.484375 -2.949219 3.421875 -3.21875 4.375 -3.21875 Z M 4.375 -3.21875 "/></g></g></g><g fill="#ffffff" fill-opacity="1"><g transform="translate(62.000783, 39.583678)"><g><path d="M 3.667969 -1.726562 C 3.464844 -3.042969 3.097656 -5.976562 3.042969 -6.34375 C 2.878906 -7.28125 2.226562 -7.472656 0.570312 -7.472656 C 0.324219 -7.472656 0.136719 -7.28125 0.121094 -7.160156 C 0.121094 -7.050781 0.351562 -6.644531 1.941406 -1.183594 C 2.117188 -0.585938 2.324219 0 3.070312 0 L 4.277344 0 C 4.523438 0 4.589844 0 4.742188 -0.203125 C 5.257812 -0.949219 7.457031 -5.71875 7.457031 -6.65625 C 7.457031 -7.429688 5.976562 -7.457031 5.445312 -7.457031 C 5.082031 -7.457031 5.027344 -7.402344 4.972656 -7.144531 C 4.375 -4.578125 4.101562 -3.234375 3.667969 -1.726562 Z M 3.667969 -1.726562 "/></g></g></g><g fill="#ffffff" fill-opacity="1"><g transform="translate(69.60637, 39.583678)"><g><path d="M 3.695312 0.136719 C 4.902344 0.136719 6.355469 -0.285156 6.355469 -1.34375 C 6.355469 -2.160156 5.5 -2.308594 5.324219 -2.308594 C 4.945312 -2.308594 4.957031 -1.5625 4.007812 -1.5625 C 3.082031 -1.5625 2.71875 -2.253906 2.71875 -2.949219 C 3.601562 -2.949219 6.96875 -3.082031 6.96875 -5.570312 C 6.96875 -6.683594 6.304688 -7.605469 4.414062 -7.605469 C 0.910156 -7.605469 0.378906 -4.414062 0.378906 -3.042969 C 0.378906 -0.570312 2.117188 0.136719 3.695312 0.136719 Z M 3.953125 -5.800781 C 4.414062 -5.800781 4.644531 -5.460938 4.644531 -5.09375 C 4.644531 -4.429688 3.871094 -4.046875 2.757812 -4.035156 C 2.851562 -4.808594 3.152344 -5.800781 3.953125 -5.800781 Z M 3.953125 -5.800781 "/></g></g></g><g fill="#ffffff" fill-opacity="1"><g transform="translate(76.831671, 39.583678)"><g><path d="M 3.722656 -7.605469 C 2.226562 -7.605469 0.609375 -6.953125 0.609375 -5.09375 C 0.609375 -2.566406 3.585938 -3.015625 3.585938 -1.984375 C 3.585938 -1.601562 3.164062 -1.535156 2.71875 -1.535156 C 1.519531 -1.535156 1.371094 -2.039062 0.921875 -2.039062 C 0.394531 -2.039062 0.136719 -1.316406 0.136719 -1.003906 C 0.136719 -0.148438 1.996094 0.136719 3.015625 0.136719 C 4.847656 0.136719 5.785156 -0.789062 5.785156 -2.09375 C 5.785156 -4.523438 2.554688 -4.101562 2.554688 -5.230469 C 2.554688 -5.597656 2.894531 -5.867188 3.394531 -5.867188 C 4.144531 -5.867188 4.171875 -5.285156 4.183594 -4.957031 C 4.183594 -4.808594 4.25 -4.769531 4.511719 -4.769531 C 5.445312 -4.769531 5.964844 -5.203125 5.964844 -5.992188 C 5.964844 -6.929688 5.242188 -7.605469 3.722656 -7.605469 Z M 3.722656 -7.605469 "/></g></g></g></svg>