<svg xmlns="http://www.w3.org/2000/svg" xmlns:xlink="http://www.w3.org/1999/xlink" width="66" zoomAndPan="magnify" viewBox="0 0 49.5 54" height="72" preserveAspectRatio="xMidYMid meet" version="1.0"><defs><clipPath id="6c35ffefae"><path d="M 0.203125 42.863281 L 4.96875 42.863281 L 4.96875 52.761719 L 0.203125 52.761719 Z M 0.203125 42.863281 " clip-rule="nonzero"/></clipPath><clipPath id="73e003dca2"><path d="M 2.585938 42.863281 C 3.902344 42.863281 4.96875 43.929688 4.96875 45.246094 L 4.96875 50.371094 C 4.96875 51.6875 3.902344 52.753906 2.585938 52.753906 C 1.269531 52.753906 0.203125 51.6875 0.203125 50.371094 L 0.203125 45.246094 C 0.203125 43.929688 1.269531 42.863281 2.585938 42.863281 Z M 2.585938 42.863281 " clip-rule="nonzero"/></clipPath><clipPath id="8adf4c9f3e"><path d="M 7.519531 32.972656 L 12.28125 32.972656 L 12.28125 52.769531 L 7.519531 52.769531 Z M 7.519531 32.972656 " clip-rule="nonzero"/></clipPath><clipPath id="d95f7f2dcb"><path d="M 9.902344 32.972656 C 11.214844 32.972656 12.28125 34.039062 12.28125 35.351562 L 12.28125 50.371094 C 12.28125 51.6875 11.214844 52.753906 9.902344 52.753906 C 8.585938 52.753906 7.519531 51.6875 7.519531 50.371094 L 7.519531 35.351562 C 7.519531 34.039062 8.585938 32.972656 9.902344 32.972656 Z M 9.902344 32.972656 " clip-rule="nonzero"/></clipPath><clipPath id="8d40ca6cbf"><path d="M 14.753906 42.863281 L 19.519531 42.863281 L 19.519531 52.761719 L 14.753906 52.761719 Z M 14.753906 42.863281 " clip-rule="nonzero"/></clipPath><clipPath id="7a0f6306cd"><path d="M 17.136719 42.863281 C 18.453125 42.863281 19.519531 43.929688 19.519531 45.246094 L 19.519531 50.371094 C 19.519531 51.6875 18.453125 52.753906 17.136719 52.753906 C 15.820312 52.753906 14.753906 51.6875 14.753906 50.371094 L 14.753906 45.246094 C 14.753906 43.929688 15.820312 42.863281 17.136719 42.863281 Z M 17.136719 42.863281 " clip-rule="nonzero"/></clipPath><clipPath id="6232441da7"><path d="M 21.992188 13.015625 L 26.753906 13.015625 L 26.753906 52.757812 L 21.992188 52.757812 Z M 21.992188 13.015625 " clip-rule="nonzero"/></clipPath><clipPath id="75971c0053"><path d="M 24.371094 13.015625 C 25.6875 13.015625 26.753906 14.078125 26.753906 15.394531 L 26.753906 50.371094 C 26.753906 51.6875 25.6875 52.753906 24.371094 52.753906 C 23.058594 52.753906 21.992188 51.6875 21.992188 50.371094 L 21.992188 15.394531 C 21.992188 14.078125 23.058594 13.015625 24.371094 13.015625 Z M 24.371094 13.015625 " clip-rule="nonzero"/></clipPath><clipPath id="0349759640"><path d="M 29.226562 32.972656 L 33.988281 32.972656 L 33.988281 52.769531 L 29.226562 52.769531 Z M 29.226562 32.972656 " clip-rule="nonzero"/></clipPath><clipPath id="1c9ee6a666"><path d="M 31.609375 32.972656 C 32.925781 32.972656 33.988281 34.039062 33.988281 35.351562 L 33.988281 50.371094 C 33.988281 51.6875 32.925781 52.753906 31.609375 52.753906 C 30.292969 52.753906 29.226562 51.6875 29.226562 50.371094 L 29.226562 35.351562 C 29.226562 34.039062 30.292969 32.972656 31.609375 32.972656 Z M 31.609375 32.972656 " clip-rule="nonzero"/></clipPath><clipPath id="037f50808a"><path d="M 36.464844 42.863281 L 41.226562 42.863281 L 41.226562 52.761719 L 36.464844 52.761719 Z M 36.464844 42.863281 " clip-rule="nonzero"/></clipPath><clipPath id="9d2be10d75"><path d="M 38.84375 42.863281 C 40.160156 42.863281 41.226562 43.929688 41.226562 45.246094 L 41.226562 50.371094 C 41.226562 51.6875 40.160156 52.753906 38.84375 52.753906 C 37.527344 52.753906 36.464844 51.6875 36.464844 50.371094 L 36.464844 45.246094 C 36.464844 43.929688 37.527344 42.863281 38.84375 42.863281 Z M 38.84375 42.863281 " clip-rule="nonzero"/></clipPath><clipPath id="987bfdbb0b"><path d="M 43.699219 42.863281 L 48.460938 42.863281 L 48.460938 52.761719 L 43.699219 52.761719 Z M 43.699219 42.863281 " clip-rule="nonzero"/></clipPath><clipPath id="ef31ae08a4"><path d="M 46.082031 42.863281 C 47.394531 42.863281 48.460938 43.929688 48.460938 45.246094 L 48.460938 50.371094 C 48.460938 51.6875 47.394531 52.753906 46.082031 52.753906 C 44.765625 52.753906 43.699219 51.6875 43.699219 50.371094 L 43.699219 45.246094 C 43.699219 43.929688 44.765625 42.863281 46.082031 42.863281 Z M 46.082031 42.863281 " clip-rule="nonzero"/></clipPath><clipPath id="d4e7e31faa"><path d="M 11.304688 10.632812 L 21.949219 10.632812 L 21.949219 15.394531 L 11.304688 15.394531 Z M 11.304688 10.632812 " clip-rule="nonzero"/></clipPath><clipPath id="382f4930b6"><path d="M 21.949219 13.011719 C 21.949219 14.328125 20.882812 15.394531 19.566406 15.394531 L 13.6875 15.394531 C 12.371094 15.394531 11.304688 14.328125 11.304688 13.011719 C 11.304688 11.699219 12.371094 10.632812 13.6875 10.632812 L 19.566406 10.632812 C 20.882812 10.632812 21.949219 11.699219 21.949219 13.011719 Z M 21.949219 13.011719 " clip-rule="nonzero"/></clipPath><clipPath id="47e4bd71e4"><path d="M 26.75 10.632812 L 37.394531 10.632812 L 37.394531 15.394531 L 26.75 15.394531 Z M 26.75 10.632812 " clip-rule="nonzero"/></clipPath><clipPath id="b6a67b12fb"><path d="M 37.394531 13.011719 C 37.394531 14.328125 36.328125 15.394531 35.011719 15.394531 L 29.132812 15.394531 C 27.816406 15.394531 26.75 14.328125 26.75 13.011719 C 26.75 11.699219 27.816406 10.632812 29.132812 10.632812 L 35.011719 10.632812 C 36.328125 10.632812 37.394531 11.699219 37.394531 13.011719 Z M 37.394531 13.011719 " clip-rule="nonzero"/></clipPath><clipPath id="03acd30816"><path d="M 21.953125 0 L 26.714844 0 L 26.714844 13.023438 L 21.953125 13.023438 Z M 21.953125 0 " clip-rule="nonzero"/></clipPath><clipPath id="89299802bb"><path d="M 24.332031 0 C 25.648438 0 26.714844 1.066406 26.714844 2.382812 L 26.714844 10.632812 C 26.714844 11.949219 25.648438 13.015625 24.332031 13.015625 C 23.019531 13.015625 21.953125 11.949219 21.953125 10.632812 L 21.953125 2.382812 C 21.953125 1.066406 23.019531 0 24.332031 0 Z M 24.332031 0 " clip-rule="nonzero"/></clipPath><clipPath id="a1a32e4f79"><path d="M 13 14 L 24 14 L 24 24 L 13 24 Z M 13 14 " clip-rule="nonzero"/></clipPath><clipPath id="16b7ed2810"><path d="M 20.964844 13.015625 L 24.332031 16.382812 L 16.292969 24.421875 L 12.925781 21.054688 Z M 20.964844 13.015625 " clip-rule="nonzero"/></clipPath><clipPath id="986dbab2f6"><path d="M 22.648438 14.699219 C 23.578125 15.628906 23.578125 17.136719 22.648438 18.066406 L 17.988281 22.726562 C 17.058594 23.65625 15.550781 23.65625 14.621094 22.726562 C 13.691406 21.796875 13.691406 20.289062 14.621094 19.355469 L 19.28125 14.699219 C 20.210938 13.769531 21.71875 13.769531 22.648438 14.699219 Z M 22.648438 14.699219 " clip-rule="nonzero"/></clipPath><clipPath id="e8dc9bfe35"><path d="M 25 14 L 35 14 L 35 24 L 25 24 Z M 25 14 " clip-rule="nonzero"/></clipPath><clipPath id="878c264980"><path d="M 35.765625 21.039062 L 32.394531 24.40625 L 24.359375 16.371094 L 27.726562 13 Z M 35.765625 21.039062 " clip-rule="nonzero"/></clipPath><clipPath id="49a2ce7cec"><path d="M 34.082031 22.722656 C 33.148438 23.652344 31.640625 23.652344 30.710938 22.722656 L 26.054688 18.066406 C 25.125 17.136719 25.125 15.628906 26.054688 14.695312 C 26.984375 13.765625 28.492188 13.765625 29.421875 14.695312 L 34.082031 19.355469 C 35.011719 20.285156 35.011719 21.792969 34.082031 22.722656 Z M 34.082031 22.722656 " clip-rule="nonzero"/></clipPath><clipPath id="8c48816c66"><path d="M 13 2 L 24 2 L 24 13 L 13 13 Z M 13 2 " clip-rule="nonzero"/></clipPath><clipPath id="48812a3e70"><path d="M 24.332031 9.644531 L 20.960938 13.015625 L 12.882812 4.9375 L 16.253906 1.566406 Z M 24.332031 9.644531 " clip-rule="nonzero"/></clipPath><clipPath id="2a99a2a811"><path d="M 22.648438 11.328125 C 21.714844 12.261719 20.207031 12.261719 19.277344 11.328125 L 14.582031 6.632812 C 13.652344 5.703125 13.652344 4.195312 14.582031 3.265625 C 15.511719 2.335938 17.019531 2.335938 17.949219 3.265625 L 22.648438 7.960938 C 23.578125 8.890625 23.578125 10.398438 22.648438 11.328125 Z M 22.648438 11.328125 " clip-rule="nonzero"/></clipPath><clipPath id="7b32162e5f"><path d="M 25 2 L 35 2 L 35 12 L 25 12 Z M 25 2 " clip-rule="nonzero"/></clipPath><clipPath id="7e035e1bc3"><path d="M 32.398438 1.582031 L 35.765625 4.949219 L 27.726562 12.988281 L 24.359375 9.617188 Z M 32.398438 1.582031 " clip-rule="nonzero"/></clipPath><clipPath id="33bd8c4b69"><path d="M 34.082031 3.265625 C 35.011719 4.195312 35.011719 5.703125 34.082031 6.632812 L 29.421875 11.292969 C 28.492188 12.222656 26.984375 12.222656 26.054688 11.292969 C 25.125 10.359375 25.125 8.851562 26.054688 7.921875 L 30.714844 3.265625 C 31.644531 2.335938 33.152344 2.335938 34.082031 3.265625 Z M 34.082031 3.265625 " clip-rule="nonzero"/></clipPath><clipPath id="fa0a76b274"><path d="M 21.125 9.804688 L 27.542969 9.804688 L 27.542969 16.222656 L 21.125 16.222656 Z M 21.125 9.804688 " clip-rule="nonzero"/></clipPath><clipPath id="cbcc8e970e"><path d="M 24.332031 9.804688 C 22.5625 9.804688 21.125 11.242188 21.125 13.015625 C 21.125 14.785156 22.5625 16.222656 24.332031 16.222656 C 26.105469 16.222656 27.542969 14.785156 27.542969 13.015625 C 27.542969 11.242188 26.105469 9.804688 24.332031 9.804688 Z M 24.332031 9.804688 " clip-rule="nonzero"/></clipPath></defs><g clip-path="url(#6c35ffefae)"><g clip-path="url(#73e003dca2)"><path fill="#d9c11e" d="M 0.203125 42.863281 L 4.96875 42.863281 L 4.96875 52.761719 L 0.203125 52.761719 Z M 0.203125 42.863281 " fill-opacity="1" fill-rule="nonzero"/></g></g><g clip-path="url(#8adf4c9f3e)"><g clip-path="url(#d95f7f2dcb)"><path fill="#d9c11e" d="M 7.519531 32.972656 L 12.28125 32.972656 L 12.28125 52.75 L 7.519531 52.75 Z M 7.519531 32.972656 " fill-opacity="1" fill-rule="nonzero"/></g></g><g clip-path="url(#8d40ca6cbf)"><g clip-path="url(#7a0f6306cd)"><path fill="#d9c11e" d="M 14.753906 42.863281 L 19.519531 42.863281 L 19.519531 52.761719 L 14.753906 52.761719 Z M 14.753906 42.863281 " fill-opacity="1" fill-rule="nonzero"/></g></g><g clip-path="url(#6232441da7)"><g clip-path="url(#75971c0053)"><path fill="#d9c11e" d="M 21.992188 13.015625 L 26.753906 13.015625 L 26.753906 52.757812 L 21.992188 52.757812 Z M 21.992188 13.015625 " fill-opacity="1" fill-rule="nonzero"/></g></g><g clip-path="url(#0349759640)"><g clip-path="url(#1c9ee6a666)"><path fill="#d9c11e" d="M 29.226562 32.972656 L 33.988281 32.972656 L 33.988281 52.75 L 29.226562 52.75 Z M 29.226562 32.972656 " fill-opacity="1" fill-rule="nonzero"/></g></g><g clip-path="url(#037f50808a)"><g clip-path="url(#9d2be10d75)"><path fill="#d9c11e" d="M 36.464844 42.863281 L 41.226562 42.863281 L 41.226562 52.761719 L 36.464844 52.761719 Z M 36.464844 42.863281 " fill-opacity="1" fill-rule="nonzero"/></g></g><g clip-path="url(#987bfdbb0b)"><g clip-path="url(#ef31ae08a4)"><path fill="#d9c11e" d="M 43.699219 42.863281 L 48.460938 42.863281 L 48.460938 52.761719 L 43.699219 52.761719 Z M 43.699219 42.863281 " fill-opacity="1" fill-rule="nonzero"/></g></g><g clip-path="url(#d4e7e31faa)"><g clip-path="url(#382f4930b6)"><path fill="#d9c11e" d="M 21.949219 10.632812 L 21.949219 15.394531 L 11.304688 15.394531 L 11.304688 10.632812 Z M 21.949219 10.632812 " fill-opacity="1" fill-rule="nonzero"/></g></g><g clip-path="url(#47e4bd71e4)"><g clip-path="url(#b6a67b12fb)"><path fill="#d9c11e" d="M 37.394531 10.632812 L 37.394531 15.394531 L 26.75 15.394531 L 26.75 10.632812 Z M 37.394531 10.632812 " fill-opacity="1" fill-rule="nonzero"/></g></g><g clip-path="url(#03acd30816)"><g clip-path="url(#89299802bb)"><path fill="#d9c11e" d="M 21.953125 0 L 26.714844 0 L 26.714844 13.003906 L 21.953125 13.003906 Z M 21.953125 0 " fill-opacity="1" fill-rule="nonzero"/></g></g><g clip-path="url(#a1a32e4f79)"><g clip-path="url(#16b7ed2810)"><g clip-path="url(#986dbab2f6)"><path fill="#d9c11e" d="M 20.964844 13.015625 L 24.332031 16.382812 L 16.308594 24.40625 L 12.9375 21.039062 Z M 20.964844 13.015625 " fill-opacity="1" fill-rule="nonzero"/></g></g></g><g clip-path="url(#e8dc9bfe35)"><g clip-path="url(#878c264980)"><g clip-path="url(#49a2ce7cec)"><path fill="#d9c11e" d="M 35.765625 21.039062 L 32.394531 24.40625 L 24.371094 16.382812 L 27.738281 13.015625 Z M 35.765625 21.039062 " fill-opacity="1" fill-rule="nonzero"/></g></g></g><g clip-path="url(#8c48816c66)"><g clip-path="url(#48812a3e70)"><g clip-path="url(#2a99a2a811)"><path fill="#d9c11e" d="M 24.332031 9.644531 L 20.960938 13.015625 L 12.898438 4.949219 L 16.265625 1.582031 Z M 24.332031 9.644531 " fill-opacity="1" fill-rule="nonzero"/></g></g></g><g clip-path="url(#7b32162e5f)"><g clip-path="url(#7e035e1bc3)"><g clip-path="url(#33bd8c4b69)"><path fill="#d9c11e" d="M 32.398438 1.582031 L 35.765625 4.949219 L 27.742188 12.972656 L 24.371094 9.605469 Z M 32.398438 1.582031 " fill-opacity="1" fill-rule="nonzero"/></g></g></g><g clip-path="url(#fa0a76b274)"><g clip-path="url(#cbcc8e970e)"><path fill="#d9c11e" d="M 21.125 9.804688 L 27.542969 9.804688 L 27.542969 16.222656 L 21.125 16.222656 Z M 21.125 9.804688 " fill-opacity="1" fill-rule="nonzero"/></g></g></svg>